<svg xmlns="http://www.w3.org/2000/svg" xmlns:xlink="http://www.w3.org/1999/xlink" viewBox="0 0 1920 1080"><defs><style>.a{clip-path:url(#g);}.b{fill:url(#a);}.c{fill:#0352c7;}.d{fill:#1433af;}.e{fill:#0e2b9c;}.f{fill:url(#b);}.g{fill:#fff;}</style><linearGradient id="a" x1="0.5" x2="0.5" y2="1" gradientUnits="objectBoundingBox"><stop offset="0" stop-color="#05b0e6"/><stop offset="1" stop-color="#ff6105"/></linearGradient><linearGradient id="b" x1="0.5" x2="0.5" y2="1" gradientUnits="objectBoundingBox"><stop offset="0" stop-color="#0f2197"/><stop offset="1" stop-color="#08114c"/></linearGradient><clipPath id="g"><rect width="1920" height="1080"/></clipPath></defs><g id="f" class="a"><rect class="g" width="1920" height="1080"/><rect class="b" width="1920" height="1080"/><path class="c" d="M0,443.7l88.3-97.3L638.1,1080H0Z"/><path class="c" d="M-166.2,1099.1,542.6,326.9l705.3,772.2Z" transform="translate(-23 -19.4)"/><path class="d" d="M0,593.9,339.3,314.6l597.5,767.1H0Z"/><path class="c" d="M449,1081.7l791.307-850.2L2078.6,1081.7Z"/><path class="c" d="M1150.6,1081.7l724.026-735.3L2048.6,494.9v586.8Z" transform="translate(-129)"/><path class="d" d="M864.3,1080c23-26.5,570.9-813.1,570.9-813.1l482.6,429.5V1080Z"/><path class="e" d="M91.9,1080,1055.905,46,2236,1080Z" transform="translate(-180.3)"/><path class="f" d="M532,1259.23l729.15-638,729.15,638Z" transform="translate(-111.4 -177.53)"/><path class="f" d="M532,1161.23l569.15-540,569.15,540Z" transform="translate(537 -81.23)"/><path class="f" d="M532,1138.23l695.525-517,695.525,517Z" transform="translate(-532 -58.23)"/><path class="f" d="M532,1044.63l569.15-423.4,569.15,423.4Z" transform="translate(-935 35.37)"/></g></svg>