<?xml version="1.0" encoding="iso-8859-1"?>
<!-- Generator: Adobe Illustrator 19.0.0, SVG Export Plug-In . SVG Version: 6.00 Build 0)  -->
<svg xmlns="http://www.w3.org/2000/svg" xmlns:xlink="http://www.w3.org/1999/xlink" version="1.1" id="Layer_1" x="0px" y="0px" viewBox="0 0 501.333 501.333" style="enable-background:new 0 0 501.333 501.333;" xml:space="preserve" width="512px" height="512px">
<g>
	<g>
		<path d="M250.667,0C112,0,0,112,0,250.667s112,250.667,250.667,250.667s250.667-112,250.667-250.667S389.333,0,250.667,0z     M250.667,459.733c-115.2,0-209.067-93.867-209.067-209.067S135.467,41.6,250.667,41.6s209.067,93.867,209.067,209.067    S365.867,459.733,250.667,459.733z" fill="#b9d6e7"/>
	</g>
</g>
<g>
	<g>
		<path d="M168.533,155.733c-11.733,0-21.333,9.6-21.333,21.333v5.333c0,11.733,9.6,21.333,21.333,21.333s21.333-9.6,21.333-21.333    v-5.333C189.867,165.333,180.267,155.733,168.533,155.733z" fill="#b9d6e7"/>
	</g>
</g>
<g>
	<g>
		<path d="M332.8,155.733c-11.733,0-21.333,9.6-21.333,21.333v5.333c0,11.733,9.6,21.333,21.333,21.333s21.333-9.6,21.333-21.333    v-5.333C354.133,165.333,344.533,155.733,332.8,155.733z" fill="#b9d6e7"/>
	</g>
</g>
<g>
	<g>
		<path d="M373.333,281.6c-8.533-8.533-21.333-8.533-29.867,0c-51.2,51.2-133.333,51.2-184.533,0    c-8.533-8.533-21.333-8.533-29.867,0s-8.533,21.333,0,29.867c33.067,33.067,77.867,50.133,121.6,50.133s88.533-16,122.667-50.133    C381.867,302.933,381.867,290.133,373.333,281.6z" fill="#b9d6e7"/>
	</g>
</g>
<g>
</g>
<g>
</g>
<g>
</g>
<g>
</g>
<g>
</g>
<g>
</g>
<g>
</g>
<g>
</g>
<g>
</g>
<g>
</g>
<g>
</g>
<g>
</g>
<g>
</g>
<g>
</g>
<g>
</g>
</svg>
